<svg xmlns="http://www.w3.org/2000/svg" width="25" height="25" viewBox="0 0 25 25"><path fillRule="evenodd" d="M 12.5 0 A 12.5 12.5 0 0 0 0 12.5 A 12.5 12.5 0 0 0 12.5 25 A 12.5 12.5 0 0 0 25 12.5 A 12.5 12.5 0 0 0 12.5 0 z M 8.1523438 8.0117188 L 16.863281 8.0117188 L 19.191406 12 L 18.005859 12 L 18.005859 18.011719 L 15.001953 18.011719 L 7.0097656 18.011719 L 7.0097656 12 L 5.8242188 12 L 8.0078125 8.2597656 L 8.1523438 8.0117188 z M 8.7265625 9.0117188 L 7.5664062 11 L 9.0039062 11 L 9.0039062 9.0117188 L 8.7265625 9.0117188 z M 10.003906 9.0117188 L 10.003906 11 L 11.003906 11 L 11.003906 9.0117188 L 10.003906 9.0117188 z M 12.003906 9.0117188 L 12.003906 11 L 13.003906 11 L 13.003906 9.0117188 L 12.003906 9.0117188 z M 14.003906 9.0117188 L 14.003906 11 L 15.003906 11 L 15.003906 9.0117188 L 14.003906 9.0117188 z M 16.003906 9.0117188 L 16.003906 11 L 17.449219 11 L 16.289062 9.0117188 L 16.003906 9.0117188 z M 15.001953 12 L 15.001953 17.011719 L 17.005859 17.011719 L 17.005859 12 L 15.001953 12 z M 8.0097656 12.011719 L 8.0097656 17.011719 L 14.001953 17.011719 L 14.001953 12.011719 L 8.0097656 12.011719 z "/></svg>